# Blender v2.82 (sub 7) OBJ File: ''
# www.blender.org
mtllib r1-test-model.mtl
o Cylinder
v 0.000000 -1.000000 -1.000000
v 0.195090 -1.000000 -0.980785
v 0.382683 -1.000000 -0.923880
v 0.555570 -1.000000 -0.831470
v 0.707107 -1.000000 -0.707107
v 0.831470 -1.000000 -0.555570
v 0.923880 -1.000000 -0.382683
v 0.980785 -1.000000 -0.195090
v 1.000000 -1.000000 -0.000000
v 0.980785 -1.000000 0.195090
v 0.923880 -1.000000 0.382683
v 0.831470 -1.000000 0.596423
v 0.707107 -1.000000 0.822118
v 0.555570 -1.000000 1.054064
v 0.382683 -1.000000 1.300787
v 0.195090 -1.000000 1.539599
v -0.195091 -1.000000 1.539599
v -0.382684 -1.000000 1.300786
v -0.555571 -1.000000 1.054063
v -0.707107 -1.000000 0.822118
v -0.831470 -1.000000 0.596422
v -0.923880 -1.000000 0.382683
v -0.980785 -1.000000 0.195089
v -1.000000 -1.000000 -0.000001
v -0.980785 -1.000000 -0.195091
v -0.923879 -1.000000 -0.382684
v -0.831469 -1.000000 -0.555571
v -0.707106 -1.000000 -0.707108
v -0.555569 -1.000000 -0.831470
v -0.382682 -1.000000 -0.923880
v -0.195089 -1.000000 -0.980786
v -0.000000 1.000000 -0.841775
v 0.000000 0.842537 -1.000000
v -0.000000 0.978904 -0.920887
v -0.000000 0.921268 -0.978802
v 0.164222 1.000000 -0.825600
v 0.195090 0.842537 -0.980785
v 0.179656 0.978904 -0.903193
v 0.190955 0.921268 -0.959994
v 0.322133 1.000000 -0.777699
v 0.382683 0.842537 -0.923880
v 0.352408 0.978904 -0.850789
v 0.374571 0.921268 -0.904295
v 0.467665 1.000000 -0.699910
v 0.555570 0.842537 -0.831470
v 0.511618 0.978904 -0.765690
v 0.543793 0.921268 -0.813844
v 0.595225 1.000000 -0.595225
v 0.707107 0.842537 -0.707107
v 0.651166 0.978904 -0.651166
v 0.692117 0.921268 -0.692117
v 0.699910 1.000000 -0.467665
v 0.831470 0.842537 -0.555570
v 0.765690 0.978904 -0.511618
v 0.813844 0.921268 -0.543793
v 0.777699 1.000000 -0.322133
v 0.923880 0.842537 -0.382683
v 0.850789 0.978904 -0.352408
v 0.904295 0.921268 -0.374571
v 0.825600 1.000000 -0.164222
v 0.980785 0.842537 -0.195090
v 0.903193 0.978904 -0.179656
v 0.959994 0.921268 -0.190955
v 0.841775 1.000000 -0.000000
v 1.000000 0.842537 -0.000000
v 0.920887 0.978904 -0.000000
v 0.978802 0.921268 -0.000000
v 0.825601 1.000000 0.164222
v 0.980785 0.842537 0.195090
v 0.903193 0.978904 0.179656
v 0.959994 0.921268 0.190955
v 0.775795 1.000000 0.328409
v 0.923880 0.842537 0.382683
v 0.849837 0.978904 0.355546
v 0.904040 0.921268 0.375412
v 0.689924 1.000000 0.527024
v 0.831470 0.842537 0.596423
v 0.760697 0.978904 0.561724
v 0.812506 0.921268 0.587125
v 0.572979 1.000000 0.739258
v 0.707107 0.842537 0.822118
v 0.640043 0.978904 0.780688
v 0.689137 0.921268 0.811017
v 0.428347 1.000000 0.961178
v 0.555570 0.842537 1.054064
v 0.491959 0.978904 1.007621
v 0.538526 0.921268 1.041619
v 0.263085 1.000000 1.198039
v 0.382683 0.842537 1.300787
v 0.322884 0.978904 1.249413
v 0.366660 0.921268 1.287021
v 0.104717 1.000000 1.406187
v 0.195090 0.842537 1.539599
v 0.149903 0.978904 1.472893
v 0.182982 0.921268 1.521725
v -0.104717 1.000000 1.406187
v -0.195091 0.842537 1.539599
v -0.149904 0.978904 1.472893
v -0.182983 0.921268 1.521725
v -0.263086 1.000000 1.198039
v -0.382684 0.842537 1.300786
v -0.322885 0.978904 1.249413
v -0.366661 0.921268 1.287021
v -0.428348 1.000000 0.961178
v -0.555571 0.842537 1.054063
v -0.491959 0.978904 1.007621
v -0.538526 0.921268 1.041619
v -0.572979 1.000000 0.739258
v -0.707107 0.842537 0.822118
v -0.640043 0.978904 0.780688
v -0.689138 0.921268 0.811017
v -0.689925 1.000000 0.527024
v -0.831470 0.842537 0.596422
v -0.760697 0.978904 0.561723
v -0.812507 0.921268 0.587125
v -0.775795 1.000000 0.328409
v -0.923880 0.842537 0.382683
v -0.849837 0.978904 0.355546
v -0.904040 0.921268 0.375411
v -0.825601 1.000000 0.164221
v -0.980785 0.842537 0.195089
v -0.903193 0.978904 0.179655
v -0.959995 0.921268 0.190954
v -0.841775 1.000000 -0.000001
v -1.000000 0.842537 -0.000001
v -0.920887 0.978904 -0.000001
v -0.978802 0.921268 -0.000001
v -0.825600 1.000000 -0.164223
v -0.980785 0.842537 -0.195091
v -0.903193 0.978904 -0.179657
v -0.959994 0.921268 -0.190956
v -0.777698 1.000000 -0.322134
v -0.923879 0.842537 -0.382684
v -0.850789 0.978904 -0.352409
v -0.904295 0.921268 -0.374572
v -0.699910 1.000000 -0.467666
v -0.831469 0.842537 -0.555571
v -0.765689 0.978904 -0.511619
v -0.813843 0.921268 -0.543794
v -0.595224 1.000000 -0.595226
v -0.707106 0.842537 -0.707108
v -0.651165 0.978904 -0.651167
v -0.692117 0.921268 -0.692118
v -0.467664 1.000000 -0.699911
v -0.555569 0.842537 -0.831470
v -0.511617 0.978904 -0.765691
v -0.543792 0.921268 -0.813845
v -0.322132 1.000000 -0.777699
v -0.382682 0.842537 -0.923880
v -0.352407 0.978904 -0.850790
v -0.374570 0.921268 -0.904296
v -0.164221 1.000000 -0.825601
v -0.195089 0.842537 -0.980786
v -0.179655 0.978904 -0.903193
v -0.190953 0.921268 -0.959995
v 0.121210 -1.000000 1.602324
v -0.121210 -1.000000 1.602324
v 0.044366 -1.000000 1.639990
v -0.044366 -1.000000 1.639990
v -0.104717 1.000000 1.406187
v 0.104717 1.000000 1.406187
v -0.038329 1.000000 1.453548
v 0.038329 1.000000 1.453548
v -0.121578 0.842537 1.602011
v 0.121578 0.842537 1.602011
v -0.044501 0.842537 1.639792
v 0.044500 0.842537 1.639792
v 0.118632 0.978904 1.503665
v -0.118633 0.978904 1.503665
v 0.043422 0.978904 1.546395
v -0.043423 0.978904 1.546395
v 0.120957 0.921268 1.576223
v -0.120958 0.921268 1.576223
v 0.044273 0.921268 1.615124
v -0.044274 0.921268 1.615124
vt 0.031250 0.500000
vt 0.031250 0.960634
vt 0.000000 0.960634
vt 0.000000 0.500000
vt 0.937500 0.500000
vt 0.937500 0.960634
vt 0.906250 0.960634
vt 0.906250 0.500000
vt 0.875000 0.960634
vt 0.875000 0.500000
vt 0.843750 0.960634
vt 0.843750 0.500000
vt 0.812500 0.960634
vt 0.812500 0.500000
vt 0.781250 0.960634
vt 0.781250 0.500000
vt 0.750000 0.960634
vt 0.750000 0.500000
vt 0.718750 0.960634
vt 0.718750 0.500000
vt 0.687500 0.960634
vt 0.687500 0.500000
vt 0.656250 0.960634
vt 0.656250 0.500000
vt 0.625000 0.960634
vt 0.625000 0.500000
vt 0.593750 0.960634
vt 0.593750 0.500000
vt 0.562500 0.960634
vt 0.562500 0.500000
vt 0.531250 0.960634
vt 0.531250 0.500000
vt 0.214023 0.024206
vt 0.221528 0.023263
vt 0.224868 0.033446
vt 0.224868 0.033446
vt 0.519475 0.960634
vt 0.519416 0.500000
vt 0.468750 0.500000
vt 0.468750 0.960634
vt 0.437500 0.960634
vt 0.437500 0.500000
vt 0.406250 0.960634
vt 0.406250 0.500000
vt 0.375000 0.960634
vt 0.375000 0.500000
vt 0.343750 0.960634
vt 0.343750 0.500000
vt 0.312500 0.960634
vt 0.312500 0.500000
vt 0.281250 0.960634
vt 0.281250 0.500000
vt 0.250000 0.960634
vt 0.250000 0.500000
vt 0.218750 0.960634
vt 0.218750 0.500000
vt 0.187500 0.960634
vt 0.187500 0.500000
vt 0.156250 0.960634
vt 0.156250 0.500000
vt 0.125000 0.960634
vt 0.125000 0.500000
vt 0.093750 0.960634
vt 0.093750 0.500000
vt 0.062500 0.960634
vt 0.062500 0.500000
vt 1.000000 0.500000
vt 1.000000 0.960634
vt 0.968750 0.960634
vt 0.968750 0.500000
vt 0.480584 0.500000
vt 0.480525 0.960634
vt 0.999669 0.980317
vt 0.969081 0.980317
vt 0.998764 1.000000
vt 0.969986 1.000000
vt 0.293117 0.467729
vt 0.250000 0.471971
vt 0.250000 0.453896
vt 0.289413 0.450025
vt 0.968419 0.980317
vt 0.937831 0.980317
vt 0.967514 1.000000
vt 0.938736 1.000000
vt 0.334578 0.455169
vt 0.327312 0.438563
vt 0.937169 0.980317
vt 0.906581 0.980317
vt 0.936264 1.000000
vt 0.907486 1.000000
vt 0.372788 0.434773
vt 0.362240 0.419954
vt 0.905919 0.980317
vt 0.875331 0.980317
vt 0.905014 1.000000
vt 0.876236 1.000000
vt 0.406280 0.407329
vt 0.392854 0.394920
vt 0.874669 0.980317
vt 0.844081 0.980317
vt 0.873764 1.000000
vt 0.844986 1.000000
vt 0.433766 0.373898
vt 0.417978 0.364436
vt 0.843419 0.980317
vt 0.812831 0.980317
vt 0.842514 1.000000
vt 0.813736 1.000000
vt 0.454189 0.335772
vt 0.436648 0.329695
vt 0.812169 0.980317
vt 0.781581 0.980317
vt 0.811264 1.000000
vt 0.782486 1.000000
vt 0.466766 0.294431
vt 0.448144 0.292071
vt 0.780919 0.980317
vt 0.750331 0.980317
vt 0.780014 1.000000
vt 0.751236 1.000000
vt 0.471013 0.251497
vt 0.452026 0.253099
vt 0.749669 0.980317
vt 0.719081 0.980317
vt 0.748764 1.000000
vt 0.719986 1.000000
vt 0.466766 0.208723
vt 0.448144 0.214543
vt 0.718419 0.980317
vt 0.687691 0.980317
vt 0.717514 1.000000
vt 0.688213 1.000000
vt 0.453961 0.168141
vt 0.436191 0.177750
vt 0.687339 0.980317
vt 0.656385 0.980317
vt 0.686899 1.000000
vt 0.656755 1.000000
vt 0.432567 0.127662
vt 0.415582 0.138594
vt 0.656128 0.980317
vt 0.625127 0.980317
vt 0.655793 1.000000
vt 0.625475 1.000000
vt 0.403610 0.091687
vt 0.387515 0.103054
vt 0.624877 0.980317
vt 0.593818 0.980317
vt 0.624541 1.000000
vt 0.594003 1.000000
vt 0.368070 0.062260
vt 0.352803 0.073656
vt 0.593686 0.980317
vt 0.562620 0.980317
vt 0.593511 1.000000
vt 0.562950 1.000000
vt 0.327492 0.039177
vt 0.313141 0.049427
vt 0.562375 0.980317
vt 0.531777 0.980317
vt 0.562033 1.000000
vt 0.533217 1.000000
vt 0.285977 0.024206
vt 0.275132 0.033446
vt 0.469432 0.980317
vt 0.479367 0.980317
vt 0.476303 1.000000
vt 0.471294 1.000000
vt 0.210587 0.450025
vt 0.172688 0.438563
vt 0.137761 0.419954
vt 0.107146 0.394920
vt 0.082022 0.364436
vt 0.063352 0.329695
vt 0.051856 0.292071
vt 0.047974 0.253099
vt 0.051856 0.214543
vt 0.063809 0.177750
vt 0.084418 0.138594
vt 0.112485 0.103054
vt 0.147197 0.073656
vt 0.186859 0.049427
vt 0.240578 0.033985
vt 0.259422 0.033984
vt 0.275132 0.033446
vt 0.530568 0.980317
vt 0.520633 0.980317
vt 0.528706 1.000000
vt 0.523697 1.000000
vt 0.278472 0.023263
vt 0.468223 0.980317
vt 0.437625 0.980317
vt 0.466783 1.000000
vt 0.437967 1.000000
vt 0.172508 0.039177
vt 0.437380 0.980317
vt 0.406314 0.980317
vt 0.437050 1.000000
vt 0.406489 1.000000
vt 0.131930 0.062260
vt 0.406182 0.980317
vt 0.375123 0.980317
vt 0.405997 1.000000
vt 0.375459 1.000000
vt 0.096390 0.091687
vt 0.374873 0.980317
vt 0.343872 0.980317
vt 0.374525 1.000000
vt 0.344206 1.000000
vt 0.067433 0.127662
vt 0.343615 0.980317
vt 0.312661 0.980317
vt 0.343245 1.000000
vt 0.313101 1.000000
vt 0.046039 0.168141
vt 0.312309 0.980317
vt 0.281581 0.980317
vt 0.311787 1.000000
vt 0.282486 1.000000
vt 0.033234 0.208723
vt 0.280919 0.980317
vt 0.250331 0.980317
vt 0.280014 1.000000
vt 0.251236 1.000000
vt 0.028987 0.251497
vt 0.249669 0.980317
vt 0.219081 0.980317
vt 0.248764 1.000000
vt 0.219986 1.000000
vt 0.033234 0.294431
vt 0.218419 0.980317
vt 0.187831 0.980317
vt 0.217514 1.000000
vt 0.188736 1.000000
vt 0.045811 0.335772
vt 0.187169 0.980317
vt 0.156581 0.980317
vt 0.186264 1.000000
vt 0.157486 1.000000
vt 0.066235 0.373898
vt 0.155919 0.980317
vt 0.125331 0.980317
vt 0.155014 1.000000
vt 0.126236 1.000000
vt 0.093720 0.407330
vt 0.124669 0.980317
vt 0.094081 0.980317
vt 0.123764 1.000000
vt 0.094986 1.000000
vt 0.127212 0.434773
vt 0.093419 0.980317
vt 0.062831 0.980317
vt 0.092514 1.000000
vt 0.063736 1.000000
vt 0.165422 0.455169
vt 0.062169 0.980317
vt 0.031581 0.980317
vt 0.061264 1.000000
vt 0.032486 1.000000
vt 0.206883 0.467729
vt 0.030919 0.980317
vt 0.000331 0.980317
vt 0.030014 1.000000
vt 0.001236 1.000000
vt 0.490697 0.961246
vt 0.489456 0.981557
vt 0.509303 0.961246
vt 0.510544 0.981557
vt 0.489686 0.984035
vt 0.486340 1.003807
vt 0.496739 0.991790
vt 0.495306 1.000000
vt 0.513660 1.003807
vt 0.510314 0.984035
vt 0.239213 0.024210
vt 0.260787 0.024210
vt 0.573593 0.337832
vt 0.593073 0.337832
vt 0.750000 0.490000
vt 0.796822 0.485388
vt 0.841844 0.471731
vt 0.883337 0.449553
vt 0.919706 0.419706
vt 0.949553 0.383337
vt 0.971731 0.341844
vt 0.985388 0.296822
vt 0.990000 0.250000
vt 0.985388 0.203178
vt 0.971731 0.158156
vt 0.949553 0.116663
vt 0.919706 0.080294
vt 0.883337 0.050447
vt 0.841844 0.028269
vt 0.796822 0.014612
vt 0.779090 0.012865
vt 0.720910 0.012865
vt 0.703178 0.014612
vt 0.658156 0.028269
vt 0.616663 0.050447
vt 0.580294 0.080294
vt 0.550447 0.116663
vt 0.528269 0.158156
vt 0.514611 0.203179
vt 0.510000 0.250000
vt 0.514612 0.296822
vt 0.528269 0.341844
vt 0.550447 0.383337
vt 0.580295 0.419706
vt 0.616663 0.449553
vt 0.658156 0.471731
vt 0.703179 0.485389
vn -0.0980 0.0000 -0.9952
vn 0.4714 0.0000 -0.8819
vn 0.6344 0.0000 -0.7730
vn 0.7730 0.0000 -0.6344
vn 0.8819 0.0000 -0.4714
vn 0.9569 0.0000 -0.2903
vn 0.9952 0.0000 -0.0980
vn 0.9952 0.0000 0.0980
vn 0.9569 0.0000 0.2903
vn 0.9179 0.0000 0.3968
vn 0.8758 0.0000 0.4826
vn 0.8372 0.0000 0.5469
vn 0.8189 0.0000 0.5739
vn 0.7864 0.0000 0.6177
vn -0.1804 0.9663 0.1834
vn 0.6472 -0.0000 0.7623
vn -0.7864 0.0000 0.6177
vn -0.8190 0.0000 0.5739
vn -0.8372 0.0000 0.5469
vn -0.8758 0.0000 0.4826
vn -0.9179 0.0000 0.3968
vn -0.9569 0.0000 0.2903
vn -0.9952 0.0000 0.0980
vn -0.9952 0.0000 -0.0980
vn -0.9569 0.0000 -0.2903
vn -0.8819 0.0000 -0.4714
vn -0.7730 0.0000 -0.6344
vn -0.6344 0.0000 -0.7730
vn -0.4714 0.0000 -0.8819
vn -0.2903 0.0000 -0.9569
vn 0.0980 0.0000 -0.9952
vn 0.2903 0.0000 -0.9569
vn -0.6472 -0.0000 0.7623
vn 0.0947 0.2588 -0.9613
vn 0.0693 0.7071 -0.7037
vn 0.0254 0.9659 -0.2576
vn 0.2804 0.2588 -0.9243
vn 0.2053 0.7071 -0.6767
vn 0.0751 0.9659 -0.2477
vn 0.4553 0.2588 -0.8519
vn 0.3333 0.7071 -0.6236
vn 0.1220 0.9659 -0.2283
vn 0.6128 0.2588 -0.7467
vn 0.4486 0.7071 -0.5466
vn 0.1642 0.9659 -0.2001
vn 0.7467 0.2588 -0.6128
vn 0.5466 0.7071 -0.4486
vn 0.2001 0.9659 -0.1642
vn 0.8519 0.2588 -0.4553
vn 0.6236 0.7071 -0.3333
vn 0.2283 0.9659 -0.1220
vn 0.9243 0.2588 -0.2804
vn 0.6767 0.7071 -0.2053
vn 0.2477 0.9659 -0.0751
vn 0.9613 0.2588 -0.0947
vn 0.7037 0.7071 -0.0693
vn 0.2576 0.9659 -0.0254
vn 0.9613 0.2588 0.0947
vn 0.7037 0.7071 0.0693
vn 0.2576 0.9659 0.0254
vn 0.9243 0.2588 0.2804
vn 0.6767 0.7071 0.2053
vn 0.2477 0.9659 0.0751
vn 0.8866 0.2588 0.3833
vn 0.6490 0.7071 0.2806
vn 0.2376 0.9659 0.1027
vn 0.8460 0.2588 0.4662
vn 0.6193 0.7071 0.3413
vn 0.2267 0.9659 0.1249
vn 0.8087 0.2588 0.5283
vn 0.5921 0.7071 0.3866
vn 0.2168 0.9659 0.1414
vn 0.7912 0.2584 0.5543
vn 0.5798 0.7065 0.4058
vn 0.2125 0.9658 0.1485
vn 0.7608 0.2558 0.5965
vn 0.5617 0.7024 0.4372
vn 0.2081 0.9650 0.1598
vn -0.4807 0.7016 0.5260
vn 0.0000 1.0000 0.0000
vn 0.6317 0.2541 0.7324
vn 0.4808 0.7016 0.5260
vn 0.1804 0.9663 0.1834
vn -0.7608 0.2558 0.5965
vn -0.5617 0.7024 0.4372
vn -0.2081 0.9650 0.1598
vn -0.7912 0.2584 0.5543
vn -0.5798 0.7065 0.4058
vn -0.2125 0.9658 0.1485
vn -0.8087 0.2588 0.5283
vn -0.5921 0.7071 0.3866
vn -0.2168 0.9659 0.1414
vn -0.8460 0.2588 0.4662
vn -0.6193 0.7071 0.3413
vn -0.2267 0.9659 0.1249
vn -0.8866 0.2588 0.3833
vn -0.6490 0.7071 0.2806
vn -0.2376 0.9659 0.1027
vn -0.9243 0.2588 0.2804
vn -0.6767 0.7071 0.2053
vn -0.2477 0.9659 0.0751
vn -0.9613 0.2588 0.0947
vn -0.7037 0.7071 0.0693
vn -0.2576 0.9659 0.0254
vn -0.9613 0.2588 -0.0947
vn -0.7037 0.7071 -0.0693
vn -0.2576 0.9659 -0.0254
vn -0.9243 0.2588 -0.2804
vn -0.6767 0.7071 -0.2053
vn -0.2477 0.9659 -0.0751
vn -0.8519 0.2588 -0.4553
vn -0.6236 0.7071 -0.3333
vn -0.2283 0.9659 -0.1220
vn -0.7467 0.2588 -0.6128
vn -0.5466 0.7071 -0.4486
vn -0.2001 0.9659 -0.1642
vn -0.6128 0.2588 -0.7467
vn -0.4486 0.7071 -0.5466
vn -0.1642 0.9659 -0.2001
vn -0.4553 0.2588 -0.8519
vn -0.3333 0.7071 -0.6236
vn -0.1220 0.9659 -0.2283
vn -0.2804 0.2588 -0.9243
vn -0.2053 0.7071 -0.6767
vn -0.0751 0.9659 -0.2477
vn -0.0947 0.2588 -0.9613
vn -0.0693 0.7071 -0.7037
vn -0.0254 0.9659 -0.2576
vn -0.6317 0.2541 0.7324
vn -0.4287 0.2778 0.8597
vn 0.0000 0.2990 0.9543
vn 0.4287 0.2778 0.8597
vn -0.3196 0.7377 0.5947
vn 0.0000 0.7662 0.6426
vn 0.3196 0.7377 0.5947
vn -0.1287 0.9708 0.2024
vn 0.0000 0.9751 0.2216
vn 0.1287 0.9708 0.2024
vn -0.4401 0.0001 0.8979
vn 0.0000 0.0001 1.0000
vn 0.4401 0.0001 0.8979
vn 0.0000 -1.0000 -0.0000
usemtl Material.001
s off
f 31/1/1 153/2/1 33/3/1 1/4/1
f 3/5/2 41/6/2 45/7/2 4/8/2
f 4/8/3 45/7/3 49/9/3 5/10/3
f 5/10/4 49/9/4 53/11/4 6/12/4
f 6/12/5 53/11/5 57/13/5 7/14/5
f 7/14/6 57/13/6 61/15/6 8/16/6
f 8/16/7 61/15/7 65/17/7 9/18/7
f 9/18/8 65/17/8 69/19/8 10/20/8
f 10/20/9 69/19/9 73/21/9 11/22/9
f 11/22/10 73/21/10 77/23/10 12/24/10
f 12/24/11 77/23/11 81/25/11 13/26/11
f 13/26/12 81/25/12 85/27/12 14/28/12
f 14/28/13 85/27/13 89/29/13 15/30/13
f 15/30/14 89/29/14 93/31/14 16/32/14
f 98/33/15 169/34/15 160/35/15 96/36/15
f 16/32/16 93/31/16 165/37/16 156/38/16
f 17/39/17 97/40/17 101/41/17 18/42/17
f 18/42/18 101/41/18 105/43/18 19/44/18
f 19/44/19 105/43/19 109/45/19 20/46/19
f 20/46/20 109/45/20 113/47/20 21/48/20
f 21/48/21 113/47/21 117/49/21 22/50/21
f 22/50/22 117/49/22 121/51/22 23/52/22
f 23/52/23 121/51/23 125/53/23 24/54/23
f 24/54/24 125/53/24 129/55/24 25/56/24
f 25/56/25 129/55/25 133/57/25 26/58/25
f 26/58/26 133/57/26 137/59/26 27/60/26
f 27/60/27 137/59/27 141/61/27 28/62/27
f 28/62/28 141/61/28 145/63/28 29/64/28
f 29/64/29 145/63/29 149/65/29 30/66/29
f 30/66/30 149/65/30 153/2/30 31/1/30
f 1/67/31 33/68/31 37/69/31 2/70/31
f 2/70/32 37/69/32 41/6/32 3/5/32
f 157/71/33 164/72/33 97/40/33 17/39/33
f 37/69/34 33/68/34 35/73/34 39/74/34
f 39/74/35 35/73/35 34/75/35 38/76/35
f 38/77/36 34/78/36 32/79/36 36/80/36
f 41/6/37 37/69/37 39/81/37 43/82/37
f 43/82/38 39/81/38 38/83/38 42/84/38
f 42/85/39 38/77/39 36/80/39 40/86/39
f 45/7/40 41/6/40 43/87/40 47/88/40
f 47/88/41 43/87/41 42/89/41 46/90/41
f 46/91/42 42/85/42 40/86/42 44/92/42
f 49/9/43 45/7/43 47/93/43 51/94/43
f 51/94/44 47/93/44 46/95/44 50/96/44
f 50/97/45 46/91/45 44/92/45 48/98/45
f 53/11/46 49/9/46 51/99/46 55/100/46
f 55/100/47 51/99/47 50/101/47 54/102/47
f 54/103/48 50/97/48 48/98/48 52/104/48
f 57/13/49 53/11/49 55/105/49 59/106/49
f 59/106/50 55/105/50 54/107/50 58/108/50
f 58/109/51 54/103/51 52/104/51 56/110/51
f 61/15/52 57/13/52 59/111/52 63/112/52
f 63/112/53 59/111/53 58/113/53 62/114/53
f 62/115/54 58/109/54 56/110/54 60/116/54
f 65/17/55 61/15/55 63/117/55 67/118/55
f 67/118/56 63/117/56 62/119/56 66/120/56
f 66/121/57 62/115/57 60/116/57 64/122/57
f 69/19/58 65/17/58 67/123/58 71/124/58
f 71/124/59 67/123/59 66/125/59 70/126/59
f 70/127/60 66/121/60 64/122/60 68/128/60
f 73/21/61 69/19/61 71/129/61 75/130/61
f 75/130/62 71/129/62 70/131/62 74/132/62
f 74/133/63 70/127/63 68/128/63 72/134/63
f 77/23/64 73/21/64 75/135/64 79/136/64
f 79/136/65 75/135/65 74/137/65 78/138/65
f 78/139/66 74/133/66 72/134/66 76/140/66
f 81/25/67 77/23/67 79/141/67 83/142/67
f 83/142/68 79/141/68 78/143/68 82/144/68
f 82/145/69 78/139/69 76/140/69 80/146/69
f 85/27/70 81/25/70 83/147/70 87/148/70
f 87/148/71 83/147/71 82/149/71 86/150/71
f 86/151/72 82/145/72 80/146/72 84/152/72
f 89/29/73 85/27/73 87/153/73 91/154/73
f 91/154/74 87/153/74 86/155/74 90/156/74
f 90/157/75 86/151/75 84/152/75 88/158/75
f 93/31/76 89/29/76 91/159/76 95/160/76
f 95/160/77 91/159/77 90/161/77 94/162/77
f 94/163/78 90/157/78 88/158/78 92/164/78
f 99/165/79 173/166/79 169/167/79 98/168/79
f 36/80/80 32/79/80 152/169/80 148/170/80 144/171/80 140/172/80 136/173/80 132/174/80 128/175/80 124/176/80 120/177/80 116/178/80 112/179/80 108/180/80 104/181/80 100/182/80 96/36/80 160/35/80 162/183/80 163/184/80 161/185/80 92/164/80 88/158/80 84/152/80 80/146/80 76/140/80 72/134/80 68/128/80 64/122/80 60/116/80 56/110/80 52/104/80 48/98/80 44/92/80 40/86/80
f 165/37/81 93/31/81 95/186/81 172/187/81
f 172/187/82 95/186/82 94/188/82 168/189/82
f 168/190/83 94/163/83 92/164/83 161/185/83
f 101/41/84 97/40/84 99/191/84 103/192/84
f 103/192/85 99/191/85 98/193/85 102/194/85
f 102/195/86 98/33/86 96/36/86 100/182/86
f 105/43/87 101/41/87 103/196/87 107/197/87
f 107/197/88 103/196/88 102/198/88 106/199/88
f 106/200/89 102/195/89 100/182/89 104/181/89
f 109/45/90 105/43/90 107/201/90 111/202/90
f 111/202/91 107/201/91 106/203/91 110/204/91
f 110/205/92 106/200/92 104/181/92 108/180/92
f 113/47/93 109/45/93 111/206/93 115/207/93
f 115/207/94 111/206/94 110/208/94 114/209/94
f 114/210/95 110/205/95 108/180/95 112/179/95
f 117/49/96 113/47/96 115/211/96 119/212/96
f 119/212/97 115/211/97 114/213/97 118/214/97
f 118/215/98 114/210/98 112/179/98 116/178/98
f 121/51/99 117/49/99 119/216/99 123/217/99
f 123/217/100 119/216/100 118/218/100 122/219/100
f 122/220/101 118/215/101 116/178/101 120/177/101
f 125/53/102 121/51/102 123/221/102 127/222/102
f 127/222/103 123/221/103 122/223/103 126/224/103
f 126/225/104 122/220/104 120/177/104 124/176/104
f 129/55/105 125/53/105 127/226/105 131/227/105
f 131/227/106 127/226/106 126/228/106 130/229/106
f 130/230/107 126/225/107 124/176/107 128/175/107
f 133/57/108 129/55/108 131/231/108 135/232/108
f 135/232/109 131/231/109 130/233/109 134/234/109
f 134/235/110 130/230/110 128/175/110 132/174/110
f 137/59/111 133/57/111 135/236/111 139/237/111
f 139/237/112 135/236/112 134/238/112 138/239/112
f 138/240/113 134/235/113 132/174/113 136/173/113
f 141/61/114 137/59/114 139/241/114 143/242/114
f 143/242/115 139/241/115 138/243/115 142/244/115
f 142/245/116 138/240/116 136/173/116 140/172/116
f 145/63/117 141/61/117 143/246/117 147/247/117
f 147/247/118 143/246/118 142/248/118 146/249/118
f 146/250/119 142/245/119 140/172/119 144/171/119
f 149/65/120 145/63/120 147/251/120 151/252/120
f 151/252/121 147/251/121 146/253/121 150/254/121
f 150/255/122 146/250/122 144/171/122 148/170/122
f 153/2/123 149/65/123 151/256/123 155/257/123
f 155/257/124 151/256/124 150/258/124 154/259/124
f 154/260/125 150/255/125 148/170/125 152/169/125
f 33/3/126 153/2/126 155/261/126 35/262/126
f 35/262/127 155/261/127 154/263/127 34/264/127
f 34/78/128 154/260/128 152/169/128 32/79/128
f 97/40/129 164/72/129 173/166/129 99/165/129
f 173/166/130 164/72/130 166/265/130 175/266/130
f 175/266/131 166/265/131 167/267/131 174/268/131
f 174/268/132 167/267/132 165/37/132 172/187/132
f 169/167/133 173/166/133 175/269/133 171/270/133
f 171/270/134 175/269/134 174/271/134 170/272/134
f 170/273/135 174/274/135 172/187/135 168/189/135
f 160/35/136 169/34/136 171/275/136 162/183/136
f 162/183/137 171/275/137 170/276/137 163/184/137
f 163/184/138 170/276/138 168/190/138 161/185/138
f 164/72/139 157/71/139 159/277/139 166/265/139
f 166/265/140 159/277/140 158/278/140 167/267/140
f 167/267/141 158/278/141 156/38/141 165/37/141
f 1/279/142 2/280/142 3/281/142 4/282/142 5/283/142 6/284/142 7/285/142 8/286/142 9/287/142 10/288/142 11/289/142 12/290/142 13/291/142 14/292/142 15/293/142 16/294/142 156/295/142 158/278/142 159/277/142 157/296/142 17/297/142 18/298/142 19/299/142 20/300/142 21/301/142 22/302/142 23/303/142 24/304/142 25/305/142 26/306/142 27/307/142 28/308/142 29/309/142 30/310/142 31/311/142
